<svg width="17" height="16" viewBox="0 0 17 16" fill="none" xmlns="http://www.w3.org/2000/svg">
<path id="Vector" d="M0.915567 8C0.88449 5.80172 1.66348 3.90746 3.25253 2.31721C4.8395 0.726969 6.72067 -0.0447674 8.89189 0.00200451C11.0652 -0.0447674 12.9526 0.726969 14.554 2.31721C16.1576 3.90746 16.9428 5.80172 16.9138 8C16.9449 10.1983 16.1576 12.0925 14.554 13.6828C12.9505 15.273 11.0631 16.0448 8.89189 15.998C6.7186 16.0448 4.8395 15.273 3.25253 13.6828C1.66348 12.0925 0.88449 10.1983 0.915567 8ZM13.746 8C13.746 6.53519 13.2861 5.32337 12.3662 4.36242C11.4464 3.4036 10.2965 2.92525 8.91468 2.92525C7.51623 2.92525 6.36225 3.40147 5.45068 4.35179C4.5391 5.30211 4.08331 6.51818 4.08331 8C4.08331 9.48182 4.5391 10.6979 5.45068 11.6482C6.36225 12.5985 7.51623 13.0748 8.91468 13.0748C10.2965 13.0748 11.4485 12.5985 12.3662 11.6482C13.2861 10.6979 13.746 9.48182 13.746 8Z" fill="#FF2727"/>
</svg>
